<?xml version="1.0" encoding="UTF-8" standalone="no"?>
<!-- Created with Inkscape (http://www.inkscape.org/) -->

<svg
   width="87.920731mm"
   height="64.455139mm"
   viewBox="0 0 87.920731 64.455139"
   version="1.1"
   id="svg1"
   inkscape:version="1.3.2 (091e20ef0f, 2023-11-25, custom)"
   sodipodi:docname="cable-eqn_circuit.svg"
   xmlns:inkscape="http://www.inkscape.org/namespaces/inkscape"
   xmlns:sodipodi="http://sodipodi.sourceforge.net/DTD/sodipodi-0.dtd"
   xmlns="http://www.w3.org/2000/svg"
   xmlns:svg="http://www.w3.org/2000/svg">
  <sodipodi:namedview
     id="namedview1"
     pagecolor="#ffffff"
     bordercolor="#666666"
     borderopacity="1.0"
     inkscape:showpageshadow="2"
     inkscape:pageopacity="0.0"
     inkscape:pagecheckerboard="0"
     inkscape:deskcolor="#d1d1d1"
     inkscape:document-units="mm"
     inkscape:zoom="2.0116486"
     inkscape:cx="157.83074"
     inkscape:cy="189.894"
     inkscape:window-width="2392"
     inkscape:window-height="2620"
     inkscape:window-x="4800"
     inkscape:window-y="0"
     inkscape:window-maximized="1"
     inkscape:current-layer="layer1" />
  <defs
     id="defs1">
    <marker
       style="overflow:visible"
       id="ConcaveTriangle"
       refX="0"
       refY="0"
       orient="auto-start-reverse"
       inkscape:stockid="Concave triangle arrow"
       markerWidth="1"
       markerHeight="1"
       viewBox="0 0 1 1"
       inkscape:isstock="true"
       inkscape:collect="always"
       preserveAspectRatio="xMidYMid">
      <path
         transform="scale(0.7)"
         d="M -2,-4 9,0 -2,4 c 2,-2.33 2,-5.66 0,-8 z"
         style="fill:context-stroke;fill-rule:evenodd;stroke:none"
         id="path7" />
    </marker>
    <rect
       x="895.42676"
       y="528.23987"
       width="30.575226"
       height="45.680485"
       id="rect10" />
    <marker
       style="overflow:visible"
       id="ConcaveTriangle-1"
       refX="0"
       refY="0"
       orient="auto-start-reverse"
       inkscape:stockid="Concave triangle arrow"
       markerWidth="1"
       markerHeight="1"
       viewBox="0 0 1 1"
       inkscape:isstock="true"
       inkscape:collect="always"
       preserveAspectRatio="xMidYMid">
      <path
         transform="scale(0.7)"
         d="M -2,-4 9,0 -2,4 c 2,-2.33 2,-5.66 0,-8 z"
         style="fill:context-stroke;fill-rule:evenodd;stroke:none"
         id="path7-2" />
    </marker>
    <marker
       style="overflow:visible"
       id="ConcaveTriangle-7"
       refX="0"
       refY="0"
       orient="auto-start-reverse"
       inkscape:stockid="Concave triangle arrow"
       markerWidth="1"
       markerHeight="1"
       viewBox="0 0 1 1"
       inkscape:isstock="true"
       inkscape:collect="always"
       preserveAspectRatio="xMidYMid">
      <path
         transform="scale(0.7)"
         d="M -2,-4 9,0 -2,4 c 2,-2.33 2,-5.66 0,-8 z"
         style="fill:context-stroke;fill-rule:evenodd;stroke:none"
         id="path7-5" />
    </marker>
    <marker
       style="overflow:visible"
       id="ConcaveTriangle-7-7"
       refX="0"
       refY="0"
       orient="auto-start-reverse"
       inkscape:stockid="Concave triangle arrow"
       markerWidth="1"
       markerHeight="1"
       viewBox="0 0 1 1"
       inkscape:isstock="true"
       inkscape:collect="always"
       preserveAspectRatio="xMidYMid">
      <path
         transform="scale(0.7)"
         d="M -2,-4 9,0 -2,4 c 2,-2.33 2,-5.66 0,-8 z"
         style="fill:context-stroke;fill-rule:evenodd;stroke:none"
         id="path7-5-3" />
    </marker>
    <marker
       style="overflow:visible"
       id="ConcaveTriangle-7-3"
       refX="0"
       refY="0"
       orient="auto-start-reverse"
       inkscape:stockid="Concave triangle arrow"
       markerWidth="1"
       markerHeight="1"
       viewBox="0 0 1 1"
       inkscape:isstock="true"
       inkscape:collect="always"
       preserveAspectRatio="xMidYMid">
      <path
         transform="scale(0.7)"
         d="M -2,-4 9,0 -2,4 c 2,-2.33 2,-5.66 0,-8 z"
         style="fill:context-stroke;fill-rule:evenodd;stroke:none"
         id="path7-5-1" />
    </marker>
  </defs>
  <g
     inkscape:label="Layer 1"
     inkscape:groupmode="layer"
     id="layer1"
     transform="translate(-20.967861,-117.33886)">
    <circle
       style="fill:#000000;fill-opacity:0.960784;stroke:#000000;stroke-width:0.765;stroke-dasharray:none"
       id="path5200"
       cx="64.957039"
       cy="135.15701"
       r="1.6809862" />
    <path
       style="fill:none;stroke:#000000;stroke-width:0.565;stroke-linecap:butt;stroke-linejoin:miter;stroke-dasharray:none;stroke-opacity:1"
       d="m 64.928827,135.40491 v 15.6593"
       id="path9493"
       sodipodi:nodetypes="cc" />
    <path
       style="fill:none;stroke:#000000;stroke-width:0.565;stroke-linecap:butt;stroke-linejoin:miter;stroke-dasharray:none;stroke-opacity:1"
       d="M 24.386891,135.50419 H 35.53895 l 2.28288,-7.22694 2.86376,11.61964 3.17284,-11.61847 3.36663,11.54718 3.06213,-11.4616 2.063197,6.82158 h 11.556267"
       id="path9499-6-8"
       sodipodi:nodetypes="cccccccc" />
    <path
       style="fill:none;stroke:#000000;stroke-width:0.565;stroke-linecap:butt;stroke-linejoin:miter;stroke-dasharray:none;stroke-opacity:1"
       d="m 66.901576,135.20323 h 11.152059 l 2.28288,-7.22694 2.86376,11.61964 3.17284,-11.61847 3.36663,11.54718 3.06213,-11.4616 2.063197,6.82158 h 11.556258"
       id="path9499-6-8-6"
       sodipodi:nodetypes="cccccccc" />
    <circle
       style="fill:#000000;fill-opacity:0.960784;stroke:#000000;stroke-width:0.765;stroke-dasharray:none"
       id="path5200-5"
       cx="23.031347"
       cy="135.60321"
       r="1.6809862" />
    <circle
       style="fill:#000000;fill-opacity:0.960784;stroke:#000000;stroke-width:0.765;stroke-dasharray:none"
       id="path5200-6"
       cx="106.8251"
       cy="134.89148"
       r="1.6809862" />
    <rect
       style="fill:#ffffff;fill-opacity:0.960784;stroke:#000000;stroke-width:0.564999;stroke-dasharray:none"
       id="rect7059-6-8"
       width="28.216318"
       height="25.540482"
       x="50.612129"
       y="151.37503" />
    <g
       id="g7905-1-5"
       style="fill:#ffffff"
       transform="translate(-20.556243,99.231742)">
      <rect
         style="fill:#ffffff;fill-opacity:1;stroke:none;stroke-width:0.659;stroke-dasharray:none"
         id="rect6922-5-9"
         width="13.100465"
         height="4.0917954"
         x="64.899681"
         y="62.15757" />
    </g>
    <path
       style="fill:none;stroke:#000000;stroke-width:0.486754;stroke-linecap:butt;stroke-linejoin:miter;stroke-dasharray:none;stroke-opacity:1"
       d="m 44.229562,161.35263 h 13.33993"
       id="path6976-94-7" />
    <path
       style="fill:none;stroke:#000000;stroke-width:0.486754;stroke-linecap:butt;stroke-linejoin:miter;stroke-dasharray:none;stroke-opacity:1"
       d="m 44.231102,165.52563 h 13.33993"
       id="path6976-3-9-5" />
    <rect
       style="fill:#ffffff;fill-opacity:1;stroke:#000000;stroke-width:0.659;stroke-dasharray:none"
       id="rect7173-0-3"
       width="5.3038211"
       height="11.940649"
       x="76.236244"
       y="158.33298" />
    <path
       style="fill:none;stroke:#000000;stroke-width:0.565;stroke-linecap:butt;stroke-linejoin:miter;stroke-dasharray:none;stroke-opacity:1"
       d="m 65.290032,176.95206 v 2.96787"
       id="path9389-9-8" />
    <g
       id="g9400-1-8"
       transform="translate(-24.436256,100.64898)">
      <path
         style="fill:none;stroke:#000000;stroke-width:0.264583px;stroke-linecap:butt;stroke-linejoin:miter;stroke-opacity:1"
         d="m 85.22602,79.236184 h 9.036267"
         id="path9391-7-3" />
      <path
         style="fill:none;stroke:#000000;stroke-width:0.264583px;stroke-linecap:butt;stroke-linejoin:miter;stroke-opacity:1"
         d="m 87.220221,80.109568 h 5.021106"
         id="path9393-7-1"
         sodipodi:nodetypes="cc" />
      <path
         style="fill:none;stroke:#000000;stroke-width:0.264583px;stroke-linecap:butt;stroke-linejoin:miter;stroke-opacity:1"
         d="m 88.502694,81.012727 h 2.384337"
         id="path9395-11-8"
         sodipodi:nodetypes="cc" />
    </g>
    <path
       style="fill:none;stroke:#000000;stroke-width:0.264583px;stroke-linecap:butt;stroke-linejoin:miter;stroke-opacity:1;marker-end:url(#ConcaveTriangle)"
       d="M 34.000483,123.2706 H 51.913737"
       id="path1" />
    <path
       style="fill:none;stroke:#000000;stroke-width:0.264583px;stroke-linecap:butt;stroke-linejoin:miter;stroke-opacity:1;marker-end:url(#ConcaveTriangle-1)"
       d="M 77.513862,123.24271 H 95.427116"
       id="path1-0" />
    <path
       style="fill:none;stroke:#000000;stroke-width:0.264583px;stroke-linecap:butt;stroke-linejoin:miter;stroke-opacity:1;marker-end:url(#ConcaveTriangle-7)"
       d="m 68.086054,138.96448 v 7.42312"
       id="path1-22"
       sodipodi:nodetypes="cc" />
    <path
       style="fill:none;stroke:#000000;stroke-width:0.264583px;stroke-linecap:butt;stroke-linejoin:miter;stroke-opacity:1;marker-end:url(#ConcaveTriangle-7-7)"
       d="m 40.520205,159.42214 v 7.42312"
       id="path1-22-1"
       sodipodi:nodetypes="cc" />
    <path
       style="fill:none;stroke:#000000;stroke-width:0.264583px;stroke-linecap:butt;stroke-linejoin:miter;stroke-opacity:1;marker-end:url(#ConcaveTriangle-7-3)"
       d="m 85.97143,159.41235 v 7.42312"
       id="path1-22-4"
       sodipodi:nodetypes="cc" />
    <g
       inkscape:label=""
       transform="translate(21.266824,126.62662)"
       id="g2">
      <g
         fill="#000000"
         fill-opacity="1"
         id="g3"
         transform="matrix(0.352778,0,0,0.352778,-0.929084,-0.707584)">
        <g
           id="use2"
           transform="translate(1.993,10.162)">
          <path
             d="M 7.40625,-6.84375 C 7.8125,-7.484375 8.171875,-7.765625 8.78125,-7.8125 8.90625,-7.828125 9,-7.828125 9,-8.046875 9,-8.09375 8.984375,-8.15625 8.875,-8.15625 c -0.21875,0 -0.734375,0.015625 -0.953125,0.015625 -0.34375,0 -0.703125,-0.015625 -1.03125,-0.015625 -0.09375,0 -0.21875,0 -0.21875,0.21875 0,0.109375 0.109375,0.125 0.15625,0.125 0.4375,0.03125 0.484375,0.25 0.484375,0.390625 0,0.171875 -0.171875,0.453125 -0.171875,0.46875 L 3.375,-1 2.546875,-7.453125 c 0,-0.34375 0.625,-0.359375 0.75,-0.359375 0.1875,0 0.28125,0 0.28125,-0.234375 0,-0.109375 -0.125,-0.109375 -0.15625,-0.109375 -0.203125,0 -0.453125,0.015625 -0.65625,0.015625 h -0.65625 c -0.875,0 -1.234375,-0.015625 -1.25,-0.015625 -0.078125,0 -0.21875,0 -0.21875,0.203125 0,0.140625 0.09375,0.140625 0.28125,0.140625 0.609375,0 0.640625,0.109375 0.6875,0.40625 l 0.953125,7.375 C 2.59375,0.21875 2.59375,0.25 2.765625,0.25 2.90625,0.25 2.96875,0.21875 3.078125,0.03125 Z m 0,0"
             id="path4" />
        </g>
      </g>
      <g
         fill="#000000"
         fill-opacity="1"
         id="g4"
         transform="matrix(0.352778,0,0,0.352778,-0.929084,-0.707584)">
        <g
           id="use3"
           transform="translate(8.8170004,11.955)">
          <path
             d="m 3.890625,-2.546875 c 0,-0.84375 -0.078125,-1.359375 -0.34375,-1.875 -0.34375,-0.703125 -1,-0.875 -1.4375,-0.875 -1,0 -1.375,0.75 -1.484375,0.96875 -0.28125,0.578125 -0.296875,1.375 -0.296875,1.78125 0,0.53125 0.015625,1.328125 0.40625,1.96875 0.359375,0.59375 0.953125,0.75 1.375,0.75 0.390625,0 1.0625,-0.125 1.46875,-0.90625 0.296875,-0.578125 0.3125,-1.296875 0.3125,-1.8125 z M 2.109375,-0.0625 C 1.84375,-0.0625 1.296875,-0.1875 1.125,-1.015625 1.03125,-1.46875 1.03125,-2.21875 1.03125,-2.640625 1.03125,-3.1875 1.03125,-3.75 1.125,-4.1875 1.296875,-5 1.90625,-5.078125 2.109375,-5.078125 c 0.265625,0 0.828125,0.140625 0.984375,0.859375 0.09375,0.4375 0.09375,1.046875 0.09375,1.578125 0,0.46875 0,1.1875 -0.09375,1.640625 -0.171875,0.828125 -0.71875,0.9375 -0.984375,0.9375 z m 0,0"
             id="path5" />
        </g>
      </g>
    </g>
    <g
       inkscape:label=""
       transform="translate(63.419212,126.52093)"
       id="g14">
      <g
         fill="#000000"
         fill-opacity="1"
         id="g11"
         transform="matrix(0.352778,0,0,0.352778,-0.929084,-0.707584)">
        <g
           id="g10"
           transform="translate(1.993,10.162)">
          <path
             d="M 7.40625,-6.84375 C 7.8125,-7.484375 8.171875,-7.765625 8.78125,-7.8125 8.90625,-7.828125 9,-7.828125 9,-8.046875 9,-8.09375 8.984375,-8.15625 8.875,-8.15625 c -0.21875,0 -0.734375,0.015625 -0.953125,0.015625 -0.34375,0 -0.703125,-0.015625 -1.03125,-0.015625 -0.09375,0 -0.21875,0 -0.21875,0.21875 0,0.109375 0.109375,0.125 0.15625,0.125 0.4375,0.03125 0.484375,0.25 0.484375,0.390625 0,0.171875 -0.171875,0.453125 -0.171875,0.46875 L 3.375,-1 2.546875,-7.453125 c 0,-0.34375 0.625,-0.359375 0.75,-0.359375 0.1875,0 0.28125,0 0.28125,-0.234375 0,-0.109375 -0.125,-0.109375 -0.15625,-0.109375 -0.203125,0 -0.453125,0.015625 -0.65625,0.015625 h -0.65625 c -0.875,0 -1.234375,-0.015625 -1.25,-0.015625 -0.078125,0 -0.21875,0 -0.21875,0.203125 0,0.140625 0.09375,0.140625 0.28125,0.140625 0.609375,0 0.640625,0.109375 0.6875,0.40625 l 0.953125,7.375 C 2.59375,0.21875 2.59375,0.25 2.765625,0.25 2.90625,0.25 2.96875,0.21875 3.078125,0.03125 Z m 0,0"
             id="path9" />
        </g>
      </g>
      <g
         fill="#000000"
         fill-opacity="1"
         id="g13"
         transform="matrix(0.352778,0,0,0.352778,-0.929084,-0.707584)">
        <g
           id="g12"
           transform="translate(8.8170004,11.955)">
          <path
             d="m 2.5,-5.078125 c 0,-0.21875 -0.015625,-0.21875 -0.234375,-0.21875 -0.328125,0.3125 -0.75,0.5 -1.5,0.5 v 0.265625 c 0.21875,0 0.640625,0 1.109375,-0.203125 v 4.078125 c 0,0.296875 -0.03125,0.390625 -0.78125,0.390625 H 0.8125 V 0 c 0.328125,-0.03125 1.015625,-0.03125 1.375,-0.03125 0.359375,0 1.046875,0 1.375,0.03125 V -0.265625 H 3.28125 c -0.75,0 -0.78125,-0.09375 -0.78125,-0.390625 z m 0,0"
             id="path11" />
        </g>
      </g>
    </g>
    <g
       inkscape:label=""
       transform="translate(105.01373,126.22616)"
       id="g19">
      <g
         fill="#000000"
         fill-opacity="1"
         id="g16"
         transform="matrix(0.352778,0,0,0.352778,-0.929084,-0.707584)">
        <g
           id="g15"
           transform="translate(1.993,10.162)">
          <path
             d="M 7.40625,-6.84375 C 7.8125,-7.484375 8.171875,-7.765625 8.78125,-7.8125 8.90625,-7.828125 9,-7.828125 9,-8.046875 9,-8.09375 8.984375,-8.15625 8.875,-8.15625 c -0.21875,0 -0.734375,0.015625 -0.953125,0.015625 -0.34375,0 -0.703125,-0.015625 -1.03125,-0.015625 -0.09375,0 -0.21875,0 -0.21875,0.21875 0,0.109375 0.109375,0.125 0.15625,0.125 0.4375,0.03125 0.484375,0.25 0.484375,0.390625 0,0.171875 -0.171875,0.453125 -0.171875,0.46875 L 3.375,-1 2.546875,-7.453125 c 0,-0.34375 0.625,-0.359375 0.75,-0.359375 0.1875,0 0.28125,0 0.28125,-0.234375 0,-0.109375 -0.125,-0.109375 -0.15625,-0.109375 -0.203125,0 -0.453125,0.015625 -0.65625,0.015625 h -0.65625 c -0.875,0 -1.234375,-0.015625 -1.25,-0.015625 -0.078125,0 -0.21875,0 -0.21875,0.203125 0,0.140625 0.09375,0.140625 0.28125,0.140625 0.609375,0 0.640625,0.109375 0.6875,0.40625 l 0.953125,7.375 C 2.59375,0.21875 2.59375,0.25 2.765625,0.25 2.90625,0.25 2.96875,0.21875 3.078125,0.03125 Z m 0,0"
             id="path14" />
        </g>
      </g>
      <g
         fill="#000000"
         fill-opacity="1"
         id="g18"
         transform="matrix(0.352778,0,0,0.352778,-0.929084,-0.707584)">
        <g
           id="g17"
           transform="translate(8.8170004,11.955)">
          <path
             d="m 2.25,-1.625 c 0.125,-0.125 0.453125,-0.390625 0.59375,-0.5 0.484375,-0.453125 0.953125,-0.890625 0.953125,-1.609375 0,-0.953125 -0.796875,-1.5625 -1.78125,-1.5625 -0.96875,0 -1.59375,0.71875 -1.59375,1.4375 0,0.390625 0.3125,0.4375 0.421875,0.4375 0.171875,0 0.421875,-0.109375 0.421875,-0.421875 0,-0.40625 -0.40625,-0.40625 -0.5,-0.40625 C 1,-4.84375 1.53125,-5.03125 1.921875,-5.03125 c 0.734375,0 1.125,0.625 1.125,1.296875 0,0.828125 -0.578125,1.4375 -1.53125,2.390625 l -1,1.046875 C 0.421875,-0.21875 0.421875,-0.203125 0.421875,0 H 3.5625 l 0.234375,-1.421875 h -0.25 C 3.53125,-1.265625 3.46875,-0.875 3.375,-0.71875 c -0.046875,0.0625 -0.65625,0.0625 -0.78125,0.0625 H 1.171875 Z m 0,0"
             id="path16" />
        </g>
      </g>
    </g>
    <g
       inkscape:label=""
       transform="translate(41.546303,117.62022)"
       id="g24">
      <g
         fill="#000000"
         fill-opacity="1"
         id="g20"
         transform="matrix(0.352778,0,0,0.352778,-0.873963,-0.707231)">
        <g
           id="use4"
           transform="translate(1.993,10.161)">
          <path
             d="m 4.40625,-7.28125 c 0.09375,-0.421875 0.125,-0.53125 1,-0.53125 0.265625,0 0.359375,0 0.359375,-0.234375 0,-0.109375 -0.140625,-0.109375 -0.171875,-0.109375 -0.21875,0 -0.484375,0.015625 -0.6875,0.015625 H 3.4375 c -0.25,0 -0.515625,-0.015625 -0.765625,-0.015625 -0.09375,0 -0.21875,0 -0.21875,0.21875 0,0.125 0.09375,0.125 0.328125,0.125 0.75,0 0.75,0.09375 0.75,0.21875 0,0.09375 -0.03125,0.15625 -0.046875,0.265625 l -1.625,6.4375 c -0.109375,0.421875 -0.125,0.546875 -1,0.546875 -0.265625,0 -0.375,0 -0.375,0.21875 0,0.125 0.125,0.125 0.1875,0.125 0.21875,0 0.46875,-0.03125 0.6875,-0.03125 h 1.46875 c 0.25,0 0.5,0.03125 0.75,0.03125 0.09375,0 0.234375,0 0.234375,-0.21875 0,-0.125 -0.078125,-0.125 -0.328125,-0.125 -0.75,0 -0.75,-0.09375 -0.75,-0.234375 0,-0.03125 0,-0.09375 0.046875,-0.28125 z m 0,0"
             id="path8" />
        </g>
      </g>
      <g
         fill="#000000"
         fill-opacity="1"
         id="g21"
         transform="matrix(0.352778,0,0,0.352778,-0.873963,-0.707231)">
        <g
           id="use5"
           transform="translate(7.1550002,11.955)">
          <path
             d="m 3.890625,-2.546875 c 0,-0.84375 -0.078125,-1.359375 -0.34375,-1.875 -0.34375,-0.703125 -1,-0.875 -1.4375,-0.875 -1,0 -1.375,0.75 -1.484375,0.96875 -0.28125,0.578125 -0.296875,1.375 -0.296875,1.78125 0,0.53125 0.015625,1.328125 0.40625,1.96875 0.359375,0.59375 0.953125,0.75 1.375,0.75 0.390625,0 1.0625,-0.125 1.46875,-0.90625 0.296875,-0.578125 0.3125,-1.296875 0.3125,-1.8125 z M 2.109375,-0.0625 C 1.84375,-0.0625 1.296875,-0.1875 1.125,-1.015625 1.03125,-1.46875 1.03125,-2.21875 1.03125,-2.640625 1.03125,-3.1875 1.03125,-3.75 1.125,-4.1875 1.296875,-5 1.90625,-5.078125 2.109375,-5.078125 c 0.265625,0 0.828125,0.140625 0.984375,0.859375 0.09375,0.4375 0.09375,1.046875 0.09375,1.578125 0,0.46875 0,1.1875 -0.09375,1.640625 -0.171875,0.828125 -0.71875,0.9375 -0.984375,0.9375 z m 0,0"
             id="path20" />
        </g>
      </g>
      <g
         fill="#000000"
         fill-opacity="1"
         id="g22"
         transform="matrix(0.352778,0,0,0.352778,-0.873963,-0.707231)">
        <g
           id="use6"
           transform="translate(11.39,11.955)">
          <path
             d="m 1.484375,-0.125 c 0,0.515625 -0.109375,0.984375 -0.59375,1.46875 C 0.859375,1.375 0.84375,1.390625 0.84375,1.421875 c 0,0.0625 0.0625,0.109375 0.109375,0.109375 0.09375,0 0.765625,-0.625 0.765625,-1.5625 0,-0.5 -0.203125,-0.859375 -0.546875,-0.859375 -0.28125,0 -0.4375,0.234375 -0.4375,0.4375 C 0.734375,-0.21875 0.890625,0 1.171875,0 1.375,0 1.484375,-0.109375 1.484375,-0.125 Z m 0,0"
             id="path10" />
        </g>
      </g>
      <g
         fill="#000000"
         fill-opacity="1"
         id="g23"
         transform="matrix(0.352778,0,0,0.352778,-0.873963,-0.707231)">
        <g
           id="use7"
           transform="translate(13.742,11.955)">
          <path
             d="m 2.5,-5.078125 c 0,-0.21875 -0.015625,-0.21875 -0.234375,-0.21875 -0.328125,0.3125 -0.75,0.5 -1.5,0.5 v 0.265625 c 0.21875,0 0.640625,0 1.109375,-0.203125 v 4.078125 c 0,0.296875 -0.03125,0.390625 -0.78125,0.390625 H 0.8125 V 0 c 0.328125,-0.03125 1.015625,-0.03125 1.375,-0.03125 0.359375,0 1.046875,0 1.375,0.03125 V -0.265625 H 3.28125 c -0.75,0 -0.78125,-0.09375 -0.78125,-0.390625 z m 0,0"
             id="path22" />
        </g>
      </g>
    </g>
    <g
       inkscape:label=""
       transform="translate(83.023899,117.33886)"
       id="g33">
      <g
         fill="#000000"
         fill-opacity="1"
         id="g26"
         transform="matrix(0.352778,0,0,0.352778,-0.873963,-0.707231)">
        <g
           id="g25"
           transform="translate(1.993,10.161)">
          <path
             d="m 4.40625,-7.28125 c 0.09375,-0.421875 0.125,-0.53125 1,-0.53125 0.265625,0 0.359375,0 0.359375,-0.234375 0,-0.109375 -0.140625,-0.109375 -0.171875,-0.109375 -0.21875,0 -0.484375,0.015625 -0.6875,0.015625 H 3.4375 c -0.25,0 -0.515625,-0.015625 -0.765625,-0.015625 -0.09375,0 -0.21875,0 -0.21875,0.21875 0,0.125 0.09375,0.125 0.328125,0.125 0.75,0 0.75,0.09375 0.75,0.21875 0,0.09375 -0.03125,0.15625 -0.046875,0.265625 l -1.625,6.4375 c -0.109375,0.421875 -0.125,0.546875 -1,0.546875 -0.265625,0 -0.375,0 -0.375,0.21875 0,0.125 0.125,0.125 0.1875,0.125 0.21875,0 0.46875,-0.03125 0.6875,-0.03125 h 1.46875 c 0.25,0 0.5,0.03125 0.75,0.03125 0.09375,0 0.234375,0 0.234375,-0.21875 0,-0.125 -0.078125,-0.125 -0.328125,-0.125 -0.75,0 -0.75,-0.09375 -0.75,-0.234375 0,-0.03125 0,-0.09375 0.046875,-0.28125 z m 0,0"
             id="path24" />
        </g>
      </g>
      <g
         fill="#000000"
         fill-opacity="1"
         id="g28"
         transform="matrix(0.352778,0,0,0.352778,-0.873963,-0.707231)">
        <g
           id="g27"
           transform="translate(7.1550002,11.955)">
          <path
             d="m 2.5,-5.078125 c 0,-0.21875 -0.015625,-0.21875 -0.234375,-0.21875 -0.328125,0.3125 -0.75,0.5 -1.5,0.5 v 0.265625 c 0.21875,0 0.640625,0 1.109375,-0.203125 v 4.078125 c 0,0.296875 -0.03125,0.390625 -0.78125,0.390625 H 0.8125 V 0 c 0.328125,-0.03125 1.015625,-0.03125 1.375,-0.03125 0.359375,0 1.046875,0 1.375,0.03125 V -0.265625 H 3.28125 c -0.75,0 -0.78125,-0.09375 -0.78125,-0.390625 z m 0,0"
             id="path26" />
        </g>
      </g>
      <g
         fill="#000000"
         fill-opacity="1"
         id="g30"
         transform="matrix(0.352778,0,0,0.352778,-0.873963,-0.707231)">
        <g
           id="g29"
           transform="translate(11.39,11.955)">
          <path
             d="m 1.484375,-0.125 c 0,0.515625 -0.109375,0.984375 -0.59375,1.46875 C 0.859375,1.375 0.84375,1.390625 0.84375,1.421875 c 0,0.0625 0.0625,0.109375 0.109375,0.109375 0.09375,0 0.765625,-0.625 0.765625,-1.5625 0,-0.5 -0.203125,-0.859375 -0.546875,-0.859375 -0.28125,0 -0.4375,0.234375 -0.4375,0.4375 C 0.734375,-0.21875 0.890625,0 1.171875,0 1.375,0 1.484375,-0.109375 1.484375,-0.125 Z m 0,0"
             id="path28" />
        </g>
      </g>
      <g
         fill="#000000"
         fill-opacity="1"
         id="g32"
         transform="matrix(0.352778,0,0,0.352778,-0.873963,-0.707231)">
        <g
           id="g31"
           transform="translate(13.742,11.955)">
          <path
             d="m 2.25,-1.625 c 0.125,-0.125 0.453125,-0.390625 0.59375,-0.5 0.484375,-0.453125 0.953125,-0.890625 0.953125,-1.609375 0,-0.953125 -0.796875,-1.5625 -1.78125,-1.5625 -0.96875,0 -1.59375,0.71875 -1.59375,1.4375 0,0.390625 0.3125,0.4375 0.421875,0.4375 0.171875,0 0.421875,-0.109375 0.421875,-0.421875 0,-0.40625 -0.40625,-0.40625 -0.5,-0.40625 C 1,-4.84375 1.53125,-5.03125 1.921875,-5.03125 c 0.734375,0 1.125,0.625 1.125,1.296875 0,0.828125 -0.578125,1.4375 -1.53125,2.390625 l -1,1.046875 C 0.421875,-0.21875 0.421875,-0.203125 0.421875,0 H 3.5625 l 0.234375,-1.421875 h -0.25 C 3.53125,-1.265625 3.46875,-0.875 3.375,-0.71875 c -0.046875,0.0625 -0.65625,0.0625 -0.78125,0.0625 H 1.171875 Z m 0,0"
             id="path30" />
        </g>
      </g>
    </g>
    <g
       inkscape:label=""
       transform="translate(69.605669,140.7341)"
       id="g38">
      <g
         fill="#000000"
         fill-opacity="1"
         id="g35"
         transform="matrix(0.352778,0,0,0.352778,-0.873963,-0.707584)">
        <g
           id="g34"
           transform="translate(1.993,10.162)">
          <path
             d="m 4.40625,-7.28125 c 0.09375,-0.421875 0.125,-0.53125 1,-0.53125 0.265625,0 0.359375,0 0.359375,-0.234375 0,-0.109375 -0.140625,-0.109375 -0.171875,-0.109375 -0.21875,0 -0.484375,0.015625 -0.6875,0.015625 H 3.4375 c -0.25,0 -0.515625,-0.015625 -0.765625,-0.015625 -0.09375,0 -0.21875,0 -0.21875,0.21875 0,0.125 0.09375,0.125 0.328125,0.125 0.75,0 0.75,0.09375 0.75,0.21875 0,0.09375 -0.03125,0.15625 -0.046875,0.265625 l -1.625,6.4375 c -0.109375,0.421875 -0.125,0.546875 -1,0.546875 -0.265625,0 -0.375,0 -0.375,0.21875 0,0.125 0.125,0.125 0.1875,0.125 0.21875,0 0.46875,-0.03125 0.6875,-0.03125 h 1.46875 c 0.25,0 0.5,0.03125 0.75,0.03125 0.09375,0 0.234375,0 0.234375,-0.21875 0,-0.125 -0.078125,-0.125 -0.328125,-0.125 -0.75,0 -0.75,-0.09375 -0.75,-0.234375 0,-0.03125 0,-0.09375 0.046875,-0.28125 z m 0,0"
             id="path33" />
        </g>
      </g>
      <g
         fill="#000000"
         fill-opacity="1"
         id="g37"
         transform="matrix(0.352778,0,0,0.352778,-0.873963,-0.707584)">
        <g
           id="g36"
           transform="translate(7.1550002,11.955)">
          <path
             d="m 7.734375,-4.796875 c 0.078125,-0.3125 0.09375,-0.375 0.65625,-0.375 0.1875,0 0.28125,0 0.28125,-0.15625 0,-0.109375 -0.109375,-0.109375 -0.25,-0.109375 h -1.03125 c -0.203125,0 -0.234375,0 -0.34375,0.15625 l -3,4.546875 -0.703125,-4.5 C 3.3125,-5.421875 3.296875,-5.4375 3.0625,-5.4375 H 1.984375 c -0.140625,0 -0.25,0 -0.25,0.140625 0,0.125 0.109375,0.125 0.234375,0.125 0.265625,0 0.5,0 0.5,0.125 0,0.03125 -0.015625,0.03125 -0.03125,0.140625 l -1.015625,4.046875 c -0.09375,0.40625 -0.3125,0.578125 -0.84375,0.59375 C 0.53125,-0.265625 0.4375,-0.25 0.4375,-0.109375 0.4375,-0.0625 0.484375,0 0.5625,0 0.59375,0 0.765625,-0.03125 1.34375,-0.03125 1.96875,-0.03125 2.09375,0 2.171875,0 2.203125,0 2.3125,0 2.3125,-0.15625 2.3125,-0.25 2.234375,-0.265625 2.171875,-0.265625 1.890625,-0.265625 1.65625,-0.3125 1.65625,-0.59375 1.65625,-0.640625 1.671875,-0.75 1.671875,-0.75 L 2.75,-5.078125 H 2.765625 L 3.53125,-0.21875 C 3.5625,-0.09375 3.5625,0 3.6875,0 3.796875,0 3.84375,-0.09375 3.890625,-0.15625 l 3.28125,-4.984375 H 7.1875 L 6.0625,-0.625 c -0.078125,0.296875 -0.09375,0.359375 -0.6875,0.359375 -0.140625,0 -0.25,0 -0.25,0.15625 C 5.125,-0.078125 5.15625,0 5.265625,0 5.359375,0 5.609375,-0.015625 5.71875,-0.03125 h 0.5 c 0.75,0 0.9375,0.03125 1,0.03125 0.046875,0 0.15625,0 0.15625,-0.15625 0,-0.109375 -0.109375,-0.109375 -0.25,-0.109375 -0.015625,0 -0.15625,0 -0.296875,-0.015625 -0.171875,-0.015625 -0.1875,-0.03125 -0.1875,-0.109375 0,-0.046875 0.015625,-0.09375 0.03125,-0.125 z m 0,0"
             id="path35" />
        </g>
      </g>
    </g>
    <g
       inkscape:label=""
       transform="translate(87.80523,160.80591)"
       id="g40">
      <g
         fill="#000000"
         fill-opacity="1"
         id="g39"
         transform="matrix(0.352778,0,0,0.352778,-0.873963,-0.707231)">
        <g
           id="use1"
           transform="translate(1.993,10.161)">
          <path
             d="m 4.40625,-7.28125 c 0.09375,-0.421875 0.125,-0.53125 1,-0.53125 0.265625,0 0.359375,0 0.359375,-0.234375 0,-0.109375 -0.140625,-0.109375 -0.171875,-0.109375 -0.21875,0 -0.484375,0.015625 -0.6875,0.015625 H 3.4375 c -0.25,0 -0.515625,-0.015625 -0.765625,-0.015625 -0.09375,0 -0.21875,0 -0.21875,0.21875 0,0.125 0.09375,0.125 0.328125,0.125 0.75,0 0.75,0.09375 0.75,0.21875 0,0.09375 -0.03125,0.15625 -0.046875,0.265625 l -1.625,6.4375 c -0.109375,0.421875 -0.125,0.546875 -1,0.546875 -0.265625,0 -0.375,0 -0.375,0.21875 0,0.125 0.125,0.125 0.1875,0.125 0.21875,0 0.46875,-0.03125 0.6875,-0.03125 h 1.46875 c 0.25,0 0.5,0.03125 0.75,0.03125 0.09375,0 0.234375,0 0.234375,-0.21875 0,-0.125 -0.078125,-0.125 -0.328125,-0.125 -0.75,0 -0.75,-0.09375 -0.75,-0.234375 0,-0.03125 0,-0.09375 0.046875,-0.28125 z m 0,0"
             id="path2" />
        </g>
      </g>
    </g>
    <g
       inkscape:label=""
       transform="translate(35.147855,160.64261)"
       id="g45">
      <g
         fill="#000000"
         fill-opacity="1"
         id="g42"
         transform="matrix(0.352778,0,0,0.352778,-0.873963,-0.707584)">
        <g
           id="g41"
           transform="translate(1.993,10.162)">
          <path
             d="m 4.40625,-7.28125 c 0.09375,-0.421875 0.125,-0.53125 1,-0.53125 0.265625,0 0.359375,0 0.359375,-0.234375 0,-0.109375 -0.140625,-0.109375 -0.171875,-0.109375 -0.21875,0 -0.484375,0.015625 -0.6875,0.015625 H 3.4375 c -0.25,0 -0.515625,-0.015625 -0.765625,-0.015625 -0.09375,0 -0.21875,0 -0.21875,0.21875 0,0.125 0.09375,0.125 0.328125,0.125 0.75,0 0.75,0.09375 0.75,0.21875 0,0.09375 -0.03125,0.15625 -0.046875,0.265625 l -1.625,6.4375 c -0.109375,0.421875 -0.125,0.546875 -1,0.546875 -0.265625,0 -0.375,0 -0.375,0.21875 0,0.125 0.125,0.125 0.1875,0.125 0.21875,0 0.46875,-0.03125 0.6875,-0.03125 h 1.46875 c 0.25,0 0.5,0.03125 0.75,0.03125 0.09375,0 0.234375,0 0.234375,-0.21875 0,-0.125 -0.078125,-0.125 -0.328125,-0.125 -0.75,0 -0.75,-0.09375 -0.75,-0.234375 0,-0.03125 0,-0.09375 0.046875,-0.28125 z m 0,0"
             id="path40" />
        </g>
      </g>
      <g
         fill="#000000"
         fill-opacity="1"
         id="g44"
         transform="matrix(0.352778,0,0,0.352778,-0.873963,-0.707584)">
        <g
           id="g43"
           transform="translate(7.1550002,11.955)">
          <path
             d="m 6.34375,-5.390625 c 0,-0.03125 0.015625,-0.078125 0.015625,-0.125 0,-0.046875 -0.046875,-0.09375 -0.09375,-0.09375 -0.0625,0 -0.078125,0.015625 -0.140625,0.09375 L 5.5625,-4.90625 C 5.484375,-5 5.0625,-5.609375 4.140625,-5.609375 c -1.859375,0 -3.71875,1.71875 -3.71875,3.546875 0,1.390625 1.046875,2.234375 2.3125,2.234375 1.046875,0 1.9375,-0.640625 2.359375,-1.265625 0.265625,-0.390625 0.375,-0.765625 0.375,-0.8125 0,-0.078125 -0.046875,-0.109375 -0.125,-0.109375 -0.09375,0 -0.109375,0.046875 -0.125,0.125 -0.34375,1.109375 -1.421875,1.796875 -2.375,1.796875 -0.8125,0 -1.671875,-0.484375 -1.671875,-1.703125 0,-0.25 0.09375,-1.578125 0.984375,-2.578125 C 2.75,-5.046875 3.5625,-5.34375 4.1875,-5.34375 c 1.015625,0 1.421875,0.796875 1.421875,1.5625 0,0.109375 -0.03125,0.265625 -0.03125,0.359375 0,0.09375 0.109375,0.09375 0.140625,0.09375 0.09375,0 0.109375,-0.03125 0.140625,-0.171875 z m 0,0"
             id="path42" />
        </g>
      </g>
    </g>
  </g>
</svg>
